<svg xmlns="http://www.w3.org/2000/svg" width="1302.5955mm" height="300mm" viewBox="0 0 1302.5955 300"><path d="m0 0-1.969.211s-1.404.074-1.82.074L-9.837.062s-2.962-.122-3.38 1.064l-.426 3.446s-.145 1.2 2.254.561c0 0 2.955-.35 5.628-.279 0 0 2.249-.626 3.937-.348 0 0 2.817-.079 3.095 1.547 0 0 .561 1.405-.139 2.174 0 0-.139.994-2.956 2.187 0 0-1.965-.216-2.81.144 0 0-1.127 0-2.534-.216l-6.893-.208s-1.407-.709-2.671-.142l-1.553.064s-1.26-.343-2.246.21l-.705.496s-1.123 1.196.283 2.036l13.926.353s1.824-.062 2.25-.286l2.953-.198 2.113.198s1.398.224 1.967 1.906c0 0 .427 1.126-.279 2.669 0 0 .425 1.341-4.079 2.26 0 0-2.113.275-3.659.564 0 0-.987-.362-1.971-.496 0 0-1.549-.717-3.094-.717l-9.281-.134s-2.112-.065-2.954.351c0 0-.705.215-1.834.36 0 0-.839.14-1.543.347l-1.972-.275s-.565.135-2.524-1.121c0 0-1.273-.293-1.836-1.414 0 0-.421-.348 0-2.18l1.274-.915 1.252-.919s-.133-1.27.29-4.705c0 0 .274-2.471 2.388-2.949l1.968-.364h6.897l-.561-.627s-.705-.354 0-1.196l.839-1.133s.278-.702-.278-.971c0 0 .139-.573-.42-.784L-19.684 0l-8.308.354-1.256.501-1.267-.145-.563-.847-.57-.217s-.698-.628-.559-1.196c0 0 .279-1.614.711-1.686 0 0 .277-.992 1.681-1.271l10.131.217s1.399.489 2.251.489h3.79l4.225-.427s2.807-.625 3.938-.691c0 0 2.107-.498 3.511-.498 0 0 2.962-.071 2.962.141 0 0 1.263.078 1.542 1.475 0 0 .148 1.556-.279 2.177C2.256-1.624 1.41-.208 0 0" style="fill:#231f20;fill-opacity:1;fill-rule:nonzero;stroke:none" transform="matrix(5.289 0 0 -5.289 557.983 141.702)"/><path d="m0 0-.569-.777c-.844-.637-1.125-.764-1.125-.764-.982-1.345-2.252.127-2.252.127C-5.067-.918-5.484.274-5.484.274c-.569.989 0 1.907 0 1.907.417 1.19 1.964 1.612 1.964 1.612h1.408l.699-.7C-.705 2.95-.148 1.758-.148 1.758.423 1.192 0 0 0 0m4.642 3.937s-.426.983-2.531 1.758c0 0-.567.633-2.111.908 0 0-1.13.144-1.554.985l-.42.704s-.138.425-1.26 1.263c0 0-1.833.421-2.819.153 0 0-1.544-.153-1.405-1.416 0 0 .144-1.328-.139-1.689 0 0-.562-.767-.986-.973 0 0-.848-.424-1.551-1.484 0 0-.978-.846-1.129-1.892 0 0-.976-1.552-.275-3.601 0 0 .144-.341.703-2.032 0 0 .424-1.827 2.393-2.95l1.404-.99 1.683-1.053s.288-.417 1.691-.49l2.395.141s1.829.349 3.231 1.69c0 0 1.833 1.266 1.833 1.684 0 0 .702.633 1.828 2.113 0 0 .7.63.564 1.473 0 0 .281 3.169-.284 3.72 0 0-.422.991-1.261 1.978" style="fill:#231f20;fill-opacity:1;fill-rule:nonzero;stroke:none" transform="matrix(5.289 0 0 -5.289 494.788 219.067)"/><path d="M0 0c-.419-1.261-1.83-1.466-1.83-1.466-1.402.141-1.539.914-1.539.914-.565.351-.565 2.111-.565 2.111.565 1.465 1.832 1.543 1.832 1.543.837 0 1.401-.357 1.401-.357.849-.562.849-1.605.849-1.605Zm27.439 8.31s.402.767-2.271.696c0 0-1.713-.071-1.856.294 0 0-1.263-.365-1.405 1.887 0 .641.142 3.723.142 3.723s.426.773 0 1.267c0 0-.427.704-.427 1.963 0 0 0 1.905-1.966 1.905 0 0-.922.494-2.752.356 0 0-.984-.356-.842-1.195 0 0 0-.918-.846-1.841 0 0-.425-1.332.144-1.752 0 0 .702-3.303.56-4.993 0 0 .142-.42 0-.769 0 0-.285-1.619.142-4.717l.563-6.395s.139-.487 0-1.333l.139-5.842s.115-2.171-1.576-1.321c0 0-1.12.474-6.47.054l-4.774.073s-2.398.072-1.973 1.617c0 0-.284 2.11.424 2.043 0 0 1.549.85 2.105 1.693l.844.907s.845 1.333 1.133 2.322c0 0 .415 1.482 0 2.879 0 0-.288.717-1.274 1.978 0 0-.84 1.121-1.829 1.691 0 0-1.122 1.126-1.687 1.265 0 0-1.828 1.545.284 1.885l1.261-.137 1.405.073s.986 0 1.129.064c0 0 .843-.199 1.69.285 0 0 .845.218 1.399 1.056 0 0 .711.209.711.993 0 0 0 1.493-.424 2.263 0 0-.558 1.191-2.111 1.408 0 0-.704.425-3.087.425 0 0-1.83-.425-1.403 1.835 0 0 .134 1.26-.713 1.82 0 0-.557.493-1.828.708 0 0-2.529.631-3.795 0 0 0-1.406-.287-1.406-1.683l-.144-1.133s.707-1.266 0-1.687c0 0-1.259-.074-2.531-.139 0 0-1.399 0-2.244-.291 0 0-1.55-.618-1.55-1.188 0 0-.707-.655-.144-2.283 0 0 0-1.466 1.548-1.614 0 0 .425-.419 2.112-.49l3.096-.203s.841-.5-.143-1.127c0 0-.99-.136-2.111-1.479 0 0-.422-.203-1.543-1.965l-.85-1.902s-.561-1.621 0-2.537c0 0 .14-2.671 2.25-4.423 0 0 1.41-1.332 2.254-1.83 0 0 1.406-2.33 0-3.027 0 0-1.971-.276-3.801-.276 0 0-1.408-.29-1.687-1.554 0 0-.278-.906 0-1.27 0 0 .279-2.134 1.97-2.418a298.58 298.58 0 0 0 1.972-.482l1.402.136 1.55.425 8.574.278 4.363-.218 4.784-.06s1.396.32 2.101-.449c0 0 .598-.089.461-1.78 0 0 .137-1.119-.289-1.687 0 0-.279-.623 0-1.119 0 0 .565-1.967 1.545-2.179 0 0 3.185-.847 4.447.35 0 0 .842.284.561 1.901l-.561 16.236s0 1.976.284 2.11l.145 3.316s-.286 1.4 1.121 1.4c0 0 2.122.066 2.692.562 0 0 1.426.075 1.567 2.111 0 0 .421 1.619-.561 2.535" style="fill:#231f20;fill-opacity:1;fill-rule:nonzero;stroke:none" transform="matrix(5.289 0 0 -5.289 678.834 144.747)"/><path d="M0 0c.87 2.158 3.465 1.953 3.465 1.953l2.153-.503C7.065.787 7.493-.508 7.493-.508c1.017-1.572.153-3.303.153-3.303 0-1.023-1.015-1.889-1.015-1.889-.86-.563-2.303-.923-2.303-.923-1.012-.369-2.306.437-2.306.437C0-5.267 0-4.331 0-4.331-.861-1.862 0 0 0 0m-2.152-10.963s1.432-1.572 4.603-1.727c0 0 1.301-.136 2.166-.062l1.154.217.576.217s-.142-.147 1.299.648l.284.425.427.282.442.229.43.218.146.139s.289.58 1.01.652c0 0 2.884 2.521 3.166 4.397 0 0 .722 3.897-.427 5.328 0 0-.438 2.819-1.727 3.608L10.092 5.41s-.572.51-1.582 1.07l-1.153.8s-1.01.585-2.167.935c0 0-2.013.225-5.045-.432 0 0-2.014-.569-3.311-2.089 0 0-2.312-1.507-3.033-4.683 0 0-.86-3.091.152-6.711 0 0 .569-3.38 3.895-5.263" style="fill:#231f20;fill-opacity:1;fill-rule:nonzero;stroke:none" transform="matrix(5.289 0 0 -5.289 895.642 85.486)"/><path d="M0 0s0 .873-2.885.717L-5.766.575s-1.449-.065-1.449.727c0 0-.424 1.144.444 1.508 0 0-.293.43 2.88 0 0 0 3.75-.718 4.036.5 0 0 .716.15.716 2.031 0 0 .58 1.734-.287 2.299 0 0-.715 1.442-2.734 1.371l-4.326-.073s-1.293-.285-1.293 1.872c0 0 .14 1.806-.871 2.314 0 0-1.871 1.505-3.026.867 0 0-1.59-.299-1.729-2.462l.139-9.006V.873s.29-1.301.29-2.165c0 0-.715-.583 0-2.312l.296-2.161s0-1.658 2.009-1.81c0 0 3.032-.358 2.739 1.454 0 0 0 1.725 1.161 1.367l5.615.283S1.15-4.549.723-2.162C.723-2.162 1.15-.506 0 0" style="fill:#231f20;fill-opacity:1;fill-rule:nonzero;stroke:none" transform="matrix(5.289 0 0 -5.289 1067.204 112.525)"/><path d="M0 0s.289 1.938-2.018 2.948c0 0-1.146.57-3.171.792l-6.63-.356s-.718-.223-1.872-.078l-2.31-.075s-1.008.075-2.45-.07l-6.055.223s-1.729-.223-2.31.635l-.866.513-1.437-.147s-1.87-.499-2.592-2.52c0 0-1.012-1.002.287-2.373 0 0-.149-1.091 2.883-1.441l4.611.278s1.725.072 5.192.505l5.476.215h3.17s2.165-.065 2.165-2.232l.288-5.765s-.288-3.168 3.03-3.101c0 0 1.15-.067 3.023.218 0 0 1.732.215 1.732 2.45 0 0 .434 1.517.143 4.754C.289-4.627.146-1.448 0 0" style="fill:#231f20;fill-opacity:1;fill-rule:nonzero;stroke:none" transform="matrix(5.289 0 0 -5.289 1045.097 199.026)"/><path d="M0 0c0-1.05-.605-1.05-.605-1.05l-4.405-.156c-2.873 0-2.275.375-2.425.531-1.059.994 0 2.197 0 2.197 1.212.299 1.972.378 1.972.378.311-.219 2.274-.144 2.274-.144l3.035-.075C.147 1.15 0 0 0 0m1.062-5.526s1.823.148 3.188.07c0 0 1.662.309 2.572-.306 0 0 1.215-.609 2.883-.532l2.432.156s2.275.298 2.275 1.294c0 .526-.154.604-.154.526.154.54.154 1.82-.912 2.433 0 0-.912 1.132-3.94.835H7.428s-1.36 0-1.059.986c0 0-.301 1.285 1.215 1.214h4.85s1.978-.081 2.275.75c0 0 .305.377.459 1.519 0 0 0 2.279-1.67 2.432 0 0 .152.527-3.037 1.05 0 0-1.361-.29-2.877.383l-2.723.238s-.611-.621-1.828-.689l-7.588-.305-4.242.15s-1.066.155-1.213.606l-1.369.455s-.455.393-1.818.164l-1.67-.542s-2.283-.221-5.307-.75c0 0-1.525-.299-1.525-1.827 0 0-.297-.614.306-1.823 0 0 0-1.513 2.268-1.439h4.258s1.67-.218.301-3.025l-3.637-.16s-1.367.379-1.516-1.284c0 0-.455-1.144.297-2.2 0 0 .151-1.069 1.52-.991h2.728s1.668-.156 2.281-.233h1.819s.908.233 1.514.31c0 0 .914.381 1.363.605 0 0 7.285.764 9.259-.07" style="fill:#231f20;fill-opacity:1;fill-rule:nonzero;stroke:none" transform="matrix(5.289 0 0 -5.289 1222.372 81.243)"/><path d="M0 0c2.729.23 3.338-.303 3.338-.303.76-.225.91-1.587.91-1.587.15-1.902-1.519-1.606-1.519-1.606l-3.489.381-8.646-.144c-1.666-.155-1.52 1.054-1.52 1.054-.302 1.902.155 1.902.155 1.902zm-8.945-8.422 6.822.227s3.945-.073 4.395-.984c0 0 .916-.529 2.578-.766l2.429-.45s2.119.45 2.434.992c0 0 1.658.764 1.965 1.599 0 0 .453.748.453 1.285l.152 1.813.305 4.098s.305 1.212.152 3.189c0 0 0 1.521-3.027 1.665 0 0-3.5.151-5.016.233l-6.217.219-1.517.083s-1.668.83-.457 1.517c0 0 .611-.07.457 1.368 0 0-.305 1.822.307 1.822l.755.074 8.801-.235s1.971 0 2.424-.222l.609-.232 1.366-.082s1.211-.077 1.363 1.227c0 0 .152.975.455 1.289 0 0 .307.99-.15 1.052 0 0-.153 1.141-1.971.842l-3.49.541-10.162.367s-1.666-.609-3.038-.07h-2.58s-.597-.234-2.275-.297c0 0-1.818-.242-3.789.297l-3.647.155h-1.966s-1.979-.155-2.121-1.835c0 0-.459-.976.3-1.887 0 0 0-1.07 1.512-1.07l5.008.224 5.92-.064s.754.601.908-.614c0 0 0-.689.457-1.89.154-.229.301-1.829.301-1.829l-3.031-.152s-1.518-.68-2.891-.064c0 0-.293 1.05-2.426.914 0 0-1.209.45-1.971-.163 0 0-1.81-.687-1.81-1.974V1.368c0-.148 1.51-.99 1.81-2.212 0 0 .309-1.423.155-2.867l.154-2.129s-.154-1.898.604-2.128c0 0 .302-1.523 1.972-2.119l1.819-.458.611.084 1.672.516s1.056 1.306 2.127 1.523" style="fill:#231f20;fill-opacity:1;fill-rule:nonzero;stroke:none" transform="matrix(5.289 0 0 -5.289 1227.991 205.625)"/><path d="M0 0c-.078-.029-15.425-5.741-15.554-5.793-.032.13-.529 2.285-.549 2.373C-16.024-3.379-.092 5.824.1 5.932L0 0m-17.897-1.708c-.07.113-1.278 1.965-1.327 2.035.059.075 11.885 14.162 12.028 14.332.066-.198 1.911-5.528 1.935-5.609-.06-.057-12.528-10.668-12.636-10.758m-7.874-7.224c.52.434 7.1 5.901 7.175 5.963.075-.058 1.047-.838 1.047-.838.148-.115.299-.379.327-.567 0 0 .188-1.233.203-1.323-.091-.033-8.117-2.999-8.752-3.235m-.654.774c.344.589 4.654 7.978 4.703 8.065.09-.034 1.273-.432 1.273-.432.181-.059.412-.254.502-.422 0 0 .596-1.091.64-1.176-.071-.066-6.601-5.591-7.118-6.035m4.595-8.413a7.066 7.066 0 0 0-.714-.681 7.796 7.796 0 0 0-.792-.586c-.063.104-2.827 4.734-3.179 5.32.518-.448 4.595-3.972 4.685-4.053m1.721 2.585a6.148 6.148 0 0 0-.434-.881c-.2-.35-.348-.552-.546-.826-.094.078-4.272 3.477-4.804 3.913.642-.242 5.677-2.16 5.784-2.206m-5.127-4.82a8.244 8.244 0 0 0-.949-.281c-.022.12-1.034 5.413-1.165 6.084l3.018-5.405c-.3-.151-.53-.263-.904-.398m-3.065-.544c-.4 0-.649.027-.984.063.022.127.878 5.446.984 6.119.112-.673.969-5.992.985-6.119a8.052 8.052 0 0 0-.985-.063m-3.062.544a7.258 7.258 0 0 0-.905.398l3.02 5.405c-.13-.671-1.145-5.964-1.168-6.084-.325.08-.571.147-.947.281m-2.693 1.554a7.537 7.537 0 0 0-.715.681c.092.081 4.169 3.605 4.685 4.055l-3.174-5.322a7.922 7.922 0 0 0-.796.586m-1.453 1.559a8.164 8.164 0 0 0-.987 1.707c.113.046 5.151 1.964 5.791 2.206-.529-.436-4.707-3.835-4.804-3.913m-1.785 13.57c.048.085.641 1.176.641 1.176.093.168.326.363.504.422 0 0 1.179.398 1.27.432l4.704-8.065c-.517.444-7.041 5.969-7.119 6.035m-2.286-3.574c.015.09.203 1.323.203 1.323.028.188.179.452.329.567l1.045.838c.077-.062 6.657-5.529 7.178-5.963-.634.236-8.661 3.202-8.755 3.235m-.853 2.384c-.076.047-16.01 9.245-16.201 9.353.188.108 5.111 2.844 5.187 2.885.063-.056 12.685-10.488 12.795-10.579a721.571 721.571 0 0 1-1.781-1.659m-3.014 18.991a29126.9 29126.9 0 0 0 8.403-14.314c-.116-.054-2.158-.92-2.232-.953-.06.068-11.888 14.163-12.026 14.33.207.036 5.776.926 5.855.937m9.833 3.608c.013-.084 2.975-16.191 2.998-16.327-.133-.008-2.338-.121-2.429-.123-.034.077-6.323 17.369-6.4 17.574l5.831-1.124m4.317-26.932c-.334.587-4.578 8.016-4.625 8.104l1.002.884c.145.122.427.228.618.224 0 0 1.245-.03 1.341-.035.016-.094 1.542-8.513 1.664-9.177m.67 9.863c.178.067.479.067.656-.005 0 0 1.158-.452 1.249-.485-.018-.101-1.461-8.533-1.579-9.199-.113.666-1.564 9.098-1.577 9.199.089.033 1.251.49 1.251.49m.393 20.149c.179-.111 5.018-3.006 5.091-3.053-.016-.082-2.745-16.226-2.766-16.368l-2.325.71zm5.56-21.908c-.047-.088-4.292-7.517-4.625-8.104.118.664 1.643 9.083 1.663 9.177.092.005 1.341.035 1.341.035.191.004.47-.102.613-.224 0 0 .935-.824 1.008-.884m5.636 19.908c.134-.165 3.687-4.541 3.742-4.607-.04-.075-8.127-14.313-8.199-14.433-.102.078-1.871 1.407-1.941 1.46l6.398 17.58M2.041 7.127c-.125.218-.303.37-.541.46 0 0-5.631 2.23-5.691 2.252-.017.067-1.233 5.999-1.233 5.999-.049.249-.165.45-.361.61a.961.961 0 0 1-.656.244l-6.122.173c-.038.054-3.211 5.215-3.211 5.215a.985.985 0 0 1-.546.448 1 1 0 0 1-.701.007s-5.75-1.909-5.814-1.936c-.053.046-4.798 3.808-4.798 3.808a1.05 1.05 0 0 1-1.329 0h.001s-4.751-3.762-4.801-3.808c-.067.027-5.813 1.936-5.813 1.936a1.02 1.02 0 0 1-.708-.007.96.96 0 0 1-.537-.448l-3.212-5.215-6.125-.173a.982.982 0 0 1-.659-.244 1.01 1.01 0 0 1-.357-.61l-1.235-5.999c-.062-.022-5.693-2.257-5.693-2.257a1.007 1.007 0 0 1-.539-.455 1.01 1.01 0 0 1-.142-.515c0-.056.009-.118.017-.18l1.05-7.126 17.661-6.451s9.357-3.272 9.687-3.39a7215.57 7215.57 0 0 0-6.704-2.294c-.02-.004-.572-.161-.772-.576a.66.66 0 0 1-.076-.315c0-.104.019-.216.068-.329a10.106 10.106 0 0 1 3.711-4.597 10.343 10.343 0 0 1 5.839-1.79c2.103 0 4.12.619 5.842 1.79a10.112 10.112 0 0 1 3.711 4.597.88.88 0 0 1 .069.329.66.66 0 0 1-.075.315c-.204.415-.754.572-.78.583 0 0-6.372 2.173-6.7 2.287.332.118 9.687 3.39 9.687 3.39L1.115-.694l1.051 7.126a1.02 1.02 0 0 1-.125.695" style="fill:#ed1c24;fill-opacity:1;fill-rule:nonzero;stroke:none" transform="matrix(5.289 0 0 -5.289 310.898 130.347)"/><path d="M0 0c-.812.314-.955.532-.955.874 0 .314.26.633.839.633.53 0 .853-.187.911-.223l.184-.121.247.759.048.122-.117.074c-.144.085-.553.281-1.248.281-1.108 0-1.882-.66-1.882-1.605 0-.749.494-1.293 1.51-1.663.744-.276.893-.548.893-.896 0-.467-.355-.747-.949-.747-.406 0-.819.117-1.131.321l-.181.117-.242-.771-.049-.121.111-.069c.329-.22.938-.379 1.446-.379 1.487 0 2.014.918 2.014 1.705C1.449-.914 1.016-.402 0 0" style="fill:#ed1c24;fill-opacity:1;fill-rule:nonzero;stroke:none" transform="matrix(5.289 0 0 -5.289 33.971 281.889)"/><path d="M-32.005 116.552h1.105v-6.165h-1.105z" style="fill:#ed1c24;fill-opacity:1;fill-rule:nonzero;stroke:none;stroke-width:1.06048" transform="matrix(4.98736 0 0 4.98736 215.13 -281.342)"/><path d="M0 0c0-.571.011-1.055.037-1.516-.19.358-.404.725-.658 1.13l-1.753 2.785-.052.068h-1.026v-5.813h.993v2.51c0 .638-.005 1.123-.019 1.569.194-.367.429-.768.71-1.214l1.741-2.781.048-.084h.973v5.813H0Z" style="fill:#ed1c24;fill-opacity:1;fill-rule:nonzero;stroke:none" transform="matrix(5.289 0 0 -5.289 94.785 282.248)"/><path d="M0 0c.507 0 .836-.131.991-.21l.169-.077.228.732.053.128-.13.075C1.157.723.721.897-.026.897c-1.758 0-2.938-1.187-2.938-2.952 0-1.738 1.093-2.862 2.786-2.862.708 0 1.237.148 1.473.274l.11.057-.207.878-.182-.092c-.259-.127-.662-.206-1.054-.206-1.171 0-1.871.738-1.871 1.974C-1.909-.779-1.177 0 0 0" style="fill:#ed1c24;fill-opacity:1;fill-rule:nonzero;stroke:none" transform="matrix(5.289 0 0 -5.289 127.57 273.994)"/><path d="M0 0h2.126v.909H0v1.408h2.254v.918h-3.295v-5.813h3.418v.923H0Z" style="fill:#ed1c24;fill-opacity:1;fill-rule:nonzero;stroke:none" transform="matrix(5.289 0 0 -5.289 153.098 286.31)"/><path d="m0 0-.109-.057.16-.652L.1-.918l.853.465v-4.743h.995V.618h-.755Z" style="fill:#ed1c24;fill-opacity:1;fill-rule:nonzero;stroke:none" transform="matrix(5.289 0 0 -5.289 193.855 272.465)"/><path d="M0 0c-.588.164-.847.412-.84.804 0 .317.198.687.758.687h.012c.672 0 .724-.536.724-.7C.654.436.422.156 0 0m-.095-2.636h-.01a.92.92 0 0 0-.681.272.763.763 0 0 0-.209.57c0 .438.289.777.793.934.703-.208 1.004-.504 1.004-.989 0-.47-.361-.787-.897-.787M.934-.382c.625.395.723.939.723 1.241 0 .709-.536 1.471-1.72 1.471-1.046 0-1.804-.663-1.804-1.577 0-.477.255-.904.706-1.193-.584-.332-.903-.841-.903-1.447 0-.925.817-1.596 1.943-1.596 1.141 0 1.968.718 1.968 1.709 0 .589-.323 1.078-.913 1.392" style="fill:#ed1c24;fill-opacity:1;fill-rule:nonzero;stroke:none" transform="matrix(5.289 0 0 -5.289 228.267 281.522)"/><path d="M0 0c-.189-.294-.528-.47-.909-.47-.512 0-.857.388-.857.965 0 .652.368 1.125.881 1.125a.77.77 0 0 0 .567-.222C-.083 1.162.044.73.04.183A.422.422 0 0 0 0 0m-.829 2.493C-1.94 2.493-2.81 1.6-2.81.459c0-1.042.727-1.798 1.729-1.798.368 0 .698.094.982.281-.116-.355-.289-.637-.516-.842a1.7 1.7 0 0 0-1.014-.472 3.704 3.704 0 0 0-.554-.031l-.17.011v-.926h.21c.165 0 .388.015.634.045a2.815 2.815 0 0 1 1.634.759c.44.422.964 1.218.964 2.612 0 1.477-.735 2.395-1.918 2.395" style="fill:#ed1c24;fill-opacity:1;fill-rule:nonzero;stroke:none" transform="matrix(5.289 0 0 -5.289 262.762 282.382)"/><path d="M0 0h2.592L.329-4.637l-.113-.237h1.122L3.769.213l.019.041v.685H0Z" style="fill:#ed1c24;fill-opacity:1;fill-rule:nonzero;stroke:none" transform="matrix(5.289 0 0 -5.289 278.95 274.167)"/></svg>